<?xml version="1.0" encoding="UTF-8"?>
<svg width="460px" height="460px" viewBox="0 0 460 460" version="1.1" xmlns="http://www.w3.org/2000/svg" xmlns:xlink="http://www.w3.org/1999/xlink">
    <title>Group</title>
    <g id="Page-1" stroke="none" stroke-width="1" fill="none" fill-rule="evenodd">
        <g id="Artboard" transform="translate(-26.000000, -26.000000)" fill="#000000">
            <g id="Group" transform="translate(26.354194, 26.194044)">
                <path d="M75.9917783,304.837856 C99.378813,304.837856 118.337751,285.878918 118.337751,262.491884 C118.337751,230.252703 129.836976,199.475918 152.835427,170.161528 L152.838002,170.163548 C154.542295,167.990797 154.162536,164.847832 151.989785,163.143538 C150.565087,162.026013 148.647531,161.766069 146.976734,162.463968 C71.4230372,194.077065 33.6458061,227.419093 33.6458061,262.491884 C33.6458061,285.878918 52.6047436,304.837856 75.9917783,304.837856 Z" id="Oval" transform="translate(99.837856, 229.837856) rotate(-45.000000) translate(-99.837856, -229.837856) "></path>
                <path d="M335.66749,304.837856 C359.054525,304.837856 378.013462,285.878918 378.013462,262.491884 C378.013462,230.252703 389.512688,199.475918 412.511139,170.161528 L412.513713,170.163548 C414.218007,167.990797 413.838248,164.847832 411.665497,163.143538 C410.240799,162.026013 408.323243,161.766069 406.652446,162.463968 C331.098749,194.077065 293.321518,227.419093 293.321518,262.491884 C293.321518,285.878918 312.280455,304.837856 335.66749,304.837856 Z" id="Oval" transform="translate(359.513568, 229.837856) rotate(135.000000) translate(-359.513568, -229.837856) "></path>
                <path d="M205.991778,434.513568 C229.378813,434.513568 248.337751,415.55463 248.337751,392.167595 C248.337751,359.928415 259.836976,329.15163 282.835427,299.83724 L282.838002,299.839259 C284.542295,297.666509 284.162536,294.523544 281.989785,292.81925 C280.565087,291.701725 278.647531,291.441781 276.976734,292.13968 C201.423037,323.752777 163.645806,357.094805 163.645806,392.167595 C163.645806,415.55463 182.604744,434.513568 205.991778,434.513568 Z" id="Oval" transform="translate(229.837856, 359.513568) rotate(-135.000000) translate(-229.837856, -359.513568) "></path>
                <path d="M205.991778,174.837856 C229.378813,174.837856 248.337751,155.878918 248.337751,132.491884 C248.337751,100.252703 259.836976,69.4759178 282.835427,40.1615283 L282.838002,40.1635476 C284.542295,37.9907971 284.162536,34.8478319 281.989785,33.1435384 C280.565087,32.0260132 278.647531,31.7660688 276.976734,32.4639678 C201.423037,64.0770651 163.645806,97.419093 163.645806,132.491884 C163.645806,155.878918 182.604744,174.837856 205.991778,174.837856 Z" id="Oval" transform="translate(229.837856, 99.837856) rotate(45.000000) translate(-229.837856, -99.837856) "></path>
            </g>
        </g>
    </g>
</svg>